<svg width="1006" height="388" viewBox="0 0 1006 388" fill="none" xmlns="http://www.w3.org/2000/svg">
<path d="M623.7 163.27L623.51 93.4404C621.75 85.9104 619.32 76.8804 611.26 74.6604C595.07 70.1904 577.5 85.7304 577.36 101.9L576.83 162.44L552.44 162.57V140.99L552.21 53.0004L575 52.8704L574.95 72.1904C580.38 62.8904 590.88 54.6904 601.85 53.1004C622.08 47.9604 640.8 53.9404 646.51 74.1504C657.81 57.0904 677.32 48.0704 696.66 52.8904C717.96 58.2104 719.93 81.4604 719.78 101.93L719.32 162.69L696.12 162.32L695.96 95.9404C695.94 87.6304 691.93 78.8904 684.82 75.1504C677.71 71.4104 669.48 74.2204 663.07 78.1204C656.66 82.0204 648.99 93.8004 648.89 98.9304L648.48 120.92L648.97 162.91L623.71 163.26L623.7 163.27Z" fill="black"/>
<path d="M118.46 335.31L112.49 336.83C106.93 338.24 101.08 337.92 96.68 334.49C92.28 331.06 89.99 325.02 90.52 318.86C73.46 341.73 39.24 344.7 17.78 323.89C6.52 312.97 1.42 298.73 0.54 283.04C-0.82 258.97 12.38 235.08 34.9 227.25C45.96 223.4 58.72 223.65 68.74 228.86C75.82 232.54 81.01 237.72 86.87 243.31L86.91 175.74L112.07 175.82L112.16 210.22L111.72 239.93L111.59 259.76L111.69 277.96L111.64 308.98C111.64 312.94 113.16 315.98 117.96 316.12L118.47 335.34L118.46 335.31ZM87.46 298.75L87.33 267.96C83.35 261.56 80.41 255.56 73.38 252.41C60.18 242.25 42.31 245.46 32.86 259.15C21.21 274.12 22.88 295.89 37.07 308.52C42.76 313.59 49.02 316.51 56.98 316.99C69.7 317.76 81.54 309.78 87.46 298.75Z" fill="black"/>
<path d="M206.73 303.06L227.35 309.05C217.58 328.62 198.92 336.82 177.25 337.67C143.45 338.99 116.9 308.99 120.45 275.3C120.97 270.36 122.83 265.3 124.25 260.42C126.96 251.11 132.41 244.11 139.7 237.75C152.55 226.55 169.75 222.86 186.73 225.01C217.78 228.94 239.24 259.05 232.88 289.55L219.67 289.39H206.52L176.14 289.44L146.49 289.67C146.98 298.02 151.3 304.61 156.43 310.31C163.82 318.51 174.69 320.87 185.27 318.78C194.47 316.96 202.8 312.71 206.73 303.07V303.06ZM182.38 272.57L209.39 272.39C206.26 251.85 191.11 240.73 171.8 244.1C156.73 246.73 147.27 257.53 144.97 273.04L182.37 272.57H182.38Z" fill="black"/>
<path d="M636.97 338.47C640.66 359.47 656.55 372.02 677.72 367.11C686.57 365.06 693.98 360.32 697.38 351.74L717.92 357.85C712.59 369.07 703.54 376.66 692.23 381.59C684.91 384.78 676.44 385.88 668.16 386.41C649.15 387.63 631.9 377.72 621.47 363.38C609.91 347.49 608.12 328.1 614.48 309.85C623.86 282.94 649.84 269.97 677.77 273.82C708.7 278.09 730.05 308.06 723.32 338.14L697.68 338.17L666.79 338.15L636.97 338.47ZM635.87 321.84L699.51 321.06C698.72 310.46 692.9 299.55 681.7 294.92C670.04 290.1 655.72 291.89 646.46 300.36C640.11 306.17 636.2 313.64 635.88 321.84H635.87Z" fill="black"/>
<path d="M492.97 144.8C501.72 142.53 508.55 138.14 511.84 129.68L532.53 135.7C521.91 156.12 503.99 163.15 482.17 164.34C463.43 165.36 446.33 155.39 436.18 141.54C424.27 125.29 422.58 105.87 429.13 87.3904C438.5 60.9604 464.18 48.0204 491.78 51.6604C522.66 55.7204 543.77 84.3504 538.27 116.02H487.75L451.5 116.45C452.38 125.02 456.53 131.39 461.69 137.09C469.52 145.74 481.37 147.82 492.96 144.81L492.97 144.8ZM514.19 98.9204C512.29 79.9304 497.74 68.8804 480.54 70.3304C464.39 71.3004 452.84 82.2904 449.96 99.6704L514.19 98.9104V98.9204Z" fill="black"/>
<path d="M847.53 367.15C862.09 370.47 879.04 365.63 884.98 351.93L905.6 357.75C895.28 377.61 878.38 384.82 856.11 386.4C837.16 387.74 819.54 377.8 809.18 363.6C797.36 347.41 795.59 328 802.15 309.55C811.72 282.63 837.8 269.9 865.75 273.85C896.2 278.16 917.28 307.8 911.11 338.17L884.65 338.14L829.05 338.38L825.66 338.41C821.73 338.45 831.03 363.4 847.53 367.15ZM887.22 320.99C885.32 303.19 872.59 292.21 856.58 292.35C839.56 291.94 825.4 303.5 823.23 321.83L887.23 320.99H887.22Z" fill="black"/>
<path d="M594.99 352.49C585.54 374.32 567.06 385.53 543.75 386.53C520.44 387.53 499.86 375.35 490.67 354.13L486.36 339.58C482.96 320.89 489.31 301.92 502.47 288.9C515.63 275.88 530.51 272.28 547.95 273.75C569.71 275.58 588.89 289.79 596.24 310.59C600.93 323.85 600.62 339.51 594.99 352.51V352.49ZM530.41 362.8C548.15 370.76 566.69 359.89 572.04 342.12C576.06 328.78 574.51 314.49 564.4 304.33C555.07 294.96 540.84 291.81 528.72 298.27C517.41 304.29 510.12 317.62 510.56 330.12C511.06 344.21 517.03 356.79 530.41 362.8Z" fill="black"/>
<path d="M272.41 98.3704L272.5 149.99L272.44 163.08L246.98 163.06L247.23 142.11L247.65 114.95L247.72 53.4504L270.08 52.9504L270.39 71.6604C276.33 63.6804 282.33 58.9704 290.78 55.7904C294.8 54.2704 298.98 52.6704 303.37 52.2704L313.53 51.3504C333.97 49.5004 346.46 69.2704 346.31 90.3104L345.79 162.73L322.73 162.64L322.43 118.18C322.33 102.82 323.99 82.4704 312.47 75.4904C306.54 71.9004 299.62 73.4204 293.84 76.0104C283.73 80.1704 276.27 87.5104 272.41 98.3704Z" fill="black"/>
<path d="M924.39 163C918.09 163.78 911.93 164.85 906.53 164.41C890.52 163.1 876.4 157.75 864.63 146.33L873.04 129.43C887.43 141.25 910.11 151.49 926.01 142.1C930.45 139.48 934.21 132.68 930.68 127.94C923.8 118.7 899.75 119.71 879.1 105.56C871.29 100.21 869.48 89.6604 870.43 80.9304C871.76 68.7504 879.15 60.6504 889.9 55.8904C909.01 47.4404 941.19 50.9604 954.67 67.4904L944.04 83.1504C932.38 72.7304 917.58 67.8804 902.83 71.9204C896.09 73.7704 891.38 81.0704 894.39 87.3004C896.99 92.6804 903.2 93.8804 908.22 95.4404C920.13 99.1404 931.45 102.83 942.36 108.25C948.96 111.53 953.54 116.35 955.13 123.74C959.54 144.29 945.22 160.43 924.42 163H924.39Z" fill="black"/>
<path d="M295.63 336.22C289.29 337.07 282.85 338.11 277.22 337.72C260.94 336.59 246.49 330.94 234.94 319.5L243.77 302.84C258.69 315.51 281.49 324.74 296.93 315.12C301.37 312.35 304.55 305.34 300.82 300.92C293.09 291.76 268.58 292.69 249.11 278.52C241.38 272.9 239.82 262.03 241 253.3C243.69 233.59 263.45 224.71 282.79 224.95C290.75 225.05 298.89 225.6 306.08 228.45C313.27 231.3 320.1 234.2 325.04 240.9L314.5 256.49C302.77 246.06 288.16 241.28 273.21 245.27C266.39 247.09 261.77 254.58 264.88 260.84C267.34 265.79 273.22 267.21 277.99 268.65C290.17 272.33 301.78 276.05 312.93 281.65C319.44 284.92 324.02 289.92 325.59 297.26C329.88 317.26 316.15 333.46 295.62 336.22H295.63Z" fill="black"/>
<path d="M962.98 386.39C947.22 388.06 925.78 380.78 913.83 368.36L922.22 351.58C936.73 363.22 958.83 373.6 975.17 364.22C979.72 361.61 983.57 354.76 979.73 349.81C972.7 340.76 948.22 341.63 928.16 327.51C920.5 322.12 918.74 311.69 919.66 303.08C920.94 291.18 927.95 283.14 938.37 278.35C957.39 269.61 989.3 272.56 1003.94 289.43L993.27 305.26C980.39 292.75 955.22 287.41 945.11 298.52C943.39 300.41 942.09 305.93 943.12 308.52C945.43 314.33 951.87 315.92 957.18 317.5C968.88 320.99 979.92 324.83 990.74 329.84C1000.24 334.24 1005.35 342.53 1005.2 352.96C1005.01 365.64 998.49 375.69 986.87 381.28C979.7 384.74 971.26 385.49 962.99 386.37L962.98 386.39Z" fill="black"/>
<path d="M767.8 352.52C767.79 356.18 768.74 359.8 770.72 361.61C776.64 367.02 786.2 363.31 794.48 358.98L799.94 379.33C789.36 384.82 776.83 388.52 765.09 387.11C750.8 385.39 742.91 374.94 742.99 361.43L743.19 327.19L743.03 226.3H767.94L767.92 246.21L791.68 246.28L791.89 266.56L767.8 266.77L767.98 309.95L767.83 352.5L767.8 352.52Z" fill="black"/>
<path d="M400.07 131.16C400.07 136.51 405.25 139.95 409.77 139.95C415.98 139.95 421.21 137.43 426.59 134.51L432.11 155.22C417.36 162.04 400.79 166.83 386.52 159.26C377.88 154.68 374.44 145.54 375.14 136.57C376.01 125.32 375.33 114.71 375.32 103.24L375.17 1.97037H400.11L400.06 21.9004L423.86 22.0304L423.98 42.1704L399.97 42.3804L400.1 84.5604L400.07 131.16Z" fill="black"/>
<path d="M771.92 127.99C778.93 137.03 787.93 143.6 799.87 143C809.7 142.51 818.84 136.09 823.46 127.81C834.34 108.31 829.14 84.5904 808.04 75.5604C795.62 70.2504 782.5 74.2004 772.12 84.4104L771.99 63.0004C774.46 60.3704 778.14 57.3304 781.5 55.8104C806.77 44.3504 835.15 54.6804 847.53 79.2804L850.85 88.0904C861.73 116.99 846.8 159.14 812.9 164.02C797.39 166.25 782.68 162.08 771.93 150.74V127.98L771.92 127.99Z" fill="black"/>
<path d="M405.85 300.36L439.78 300.13C448.73 300.07 455.35 292.97 457.92 285.15C460.94 275.97 460.79 266.2 455.7 258.13C451.67 251.73 445.32 248.07 437.8 247.96L406.16 247.76L406.2 224.81L444.91 224.91C462.23 227.99 476.87 240.03 482.28 256.48C486.71 269.92 486.59 282.53 481 295.04C474.41 309.78 462.03 321.04 445.57 322.65L406.24 323.36L405.85 300.35V300.36Z" fill="black"/>
<path d="M30.27 98.6404L30.06 75.5504L65.94 75.3204C69.27 75.3004 74.94 71.6904 76.95 69.2304C85.34 58.9904 86.45 44.1404 79.7 33.2804C75.86 27.1004 69.69 23.3404 62.68 23.2604L30.21 22.9104L30.26 0.130372L61.83 0.00037248C70.22 -0.0296275 78.54 1.75037 85.53 6.13037C95.22 12.2004 102.97 20.8904 106.28 31.3604C110.44 44.5104 111 57.0204 105.44 69.5104C98.89 84.2204 86.55 97.2204 69.7 97.6404L30.28 98.6304L30.27 98.6404Z" fill="black"/>
<path d="M402.09 387.85L375.9 387.79L375.94 338.92L376.13 282L376.05 224.72L400.89 224.84L401.29 253.69L401.59 335.08L402.09 387.85Z" fill="black"/>
<path d="M26.3 162.95C16.85 163.27 8.76 163.22 0 162.98L0.08 113.86L0.25 56.4004L0.13 0.0303725L25.18 0.00037248L25.37 28.8004L25.45 90.0604L26.3 162.95Z" fill="black"/>
<path d="M768.02 207.48L742.37 207.34L742.41 160.31L742.61 106.96L742.45 52.5704L766.89 52.8504L767.24 80.5904L767.16 126.19L768.02 207.48Z" fill="black"/>
<path d="M144.31 94.8804L144.23 112.8L144.33 128.08L144.63 163.02L119.36 163.19L119.1 134.14L119.75 94.9404L119.38 55.1104C119.36 53.2304 121.74 52.8904 123.61 52.8804L142.01 52.7204L142.63 73.3604C152.94 59.0804 163.96 50.0904 181.66 51.9004L181.26 73.7004C168.62 73.5804 156.7 77.9904 148.42 87.6304L144.3 94.8804H144.31Z" fill="black"/>
<path d="M226.69 162.47L202.73 161.85L202.36 115.97L202.23 101.85L202.2 51.8804L226.83 52.0704L227.22 117.92L226.78 139.93L226.69 162.47Z" fill="black"/>
<path d="M737.76 246.4L738.39 265.85L614.96 266.69L615.06 246.41L638.78 246.29L677.68 246.52L737.76 246.4Z" fill="black"/>
<path d="M237.16 23.1804L237.35 41.3404L192.24 41.5104L192.14 22.1804L217.49 22.5004L237.16 23.1804Z" fill="black"/>
<path d="M370.69 41.6004L336.78 42.4804L336.65 22.0904L370.32 22.0804L370.69 41.6004Z" fill="black"/>
</svg>
